<svg viewBox="0 0 240 280" xmlns="http://www.w3.org/2000/svg"><defs>
<linearGradient id="skin" x1="0%" y1="0%" x2="100%" y2="0%"><stop offset="0%" stop-color="#f4cba6"/><stop offset="50%" stop-color="#e8b890"/><stop offset="100%" stop-color="#c89274"/></linearGradient>
<linearGradient id="skinShadow" x1="0%" y1="0%" x2="100%" y2="0%"><stop offset="0%" stop-color="#b8855d"/><stop offset="100%" stop-color="#8a5e3a"/></linearGradient>
<linearGradient id="skinHi" x1="0%" y1="0%" x2="100%" y2="0%"><stop offset="0%" stop-color="#fde4c4"/><stop offset="100%" stop-color="#f4cba6"/></linearGradient>
<radialGradient id="cheek" cx="50%" cy="50%" r="50%"><stop offset="0%" stop-color="#e89a8a" stop-opacity="0.5"/><stop offset="100%" stop-color="#e89a8a" stop-opacity="0"/></radialGradient>
<linearGradient id="shirt" x1="0%" y1="0%" x2="50%" y2="100%"><stop offset="0%" stop-color="#6a9bff"/><stop offset="50%" stop-color="#4a7be0"/><stop offset="100%" stop-color="#2a5cc0"/></linearGradient>
<linearGradient id="shirtDark" x1="0%" y1="0%" x2="100%" y2="100%"><stop offset="0%" stop-color="#1d3870"/><stop offset="100%" stop-color="#0f2050"/></linearGradient>
<linearGradient id="shirtHi" x1="0%" y1="0%" x2="100%" y2="100%"><stop offset="0%" stop-color="#8ab4ff"/><stop offset="100%" stop-color="#6a9bff"/></linearGradient>
<linearGradient id="shorts" x1="0%" y1="0%" x2="50%" y2="100%"><stop offset="0%" stop-color="#4a4a4a"/><stop offset="50%" stop-color="#2a2a2a"/><stop offset="100%" stop-color="#0a0a0a"/></linearGradient>
<linearGradient id="shoe" x1="0%" y1="0%" x2="0%" y2="100%"><stop offset="0%" stop-color="#ffffff"/><stop offset="60%" stop-color="#d8d8d8"/><stop offset="100%" stop-color="#7a7a7a"/></linearGradient>
<linearGradient id="sole" x1="0%" y1="0%" x2="0%" y2="100%"><stop offset="0%" stop-color="#1a1a1a"/><stop offset="100%" stop-color="#0a0a0a"/></linearGradient>
<linearGradient id="metal" x1="0%" y1="0%" x2="0%" y2="100%"><stop offset="0%" stop-color="#9a9a9a"/><stop offset="20%" stop-color="#5a5a5a"/><stop offset="60%" stop-color="#1a1a1a"/><stop offset="100%" stop-color="#0a0a0a"/></linearGradient>
<radialGradient id="weightPlate" cx="50%" cy="35%" r="65%"><stop offset="0%" stop-color="#6a6a6a"/><stop offset="60%" stop-color="#2a2a2a"/><stop offset="100%" stop-color="#0a0a0a"/></radialGradient>
<linearGradient id="hair" x1="0%" y1="0%" x2="100%" y2="100%"><stop offset="0%" stop-color="#5a3d23"/><stop offset="50%" stop-color="#3d2817"/><stop offset="100%" stop-color="#2a1a0c"/></linearGradient>
<linearGradient id="bag" x1="0%" y1="0%" x2="100%" y2="100%"><stop offset="0%" stop-color="#8a4530"/><stop offset="100%" stop-color="#5a2a18"/></linearGradient>
<linearGradient id="wall" x1="0%" y1="0%" x2="100%" y2="0%"><stop offset="0%" stop-color="#ddc8a8"/><stop offset="100%" stop-color="#b8a080"/></linearGradient>
<linearGradient id="chair" x1="0%" y1="0%" x2="100%" y2="100%"><stop offset="0%" stop-color="#8a6a4a"/><stop offset="100%" stop-color="#5a4028"/></linearGradient>
</defs>
<line x1="20" y1="252" x2="220" y2="252" stroke="#888" stroke-width="2"/>
<ellipse cx="120" cy="256" rx="100" ry="3" fill="#000" opacity="0.15"/>


<g transform="translate(20,0)">
<ellipse cx="100" cy="48" rx="18" ry="22" fill="url(#skin)"/>
<ellipse cx="92" cy="56" rx="5" ry="4" fill="url(#cheek)"/>
<ellipse cx="108" cy="56" rx="5" ry="4" fill="url(#cheek)"/>
<path d="M 84 64 Q 100 76 116 64" fill="none" stroke="url(#skinShadow)" stroke-width="0.6" opacity="0.5"/>
<ellipse cx="93" cy="50" rx="3" ry="2" fill="url(#skinShadow)" opacity="0.3"/>
<ellipse cx="107" cy="50" rx="3" ry="2" fill="url(#skinShadow)" opacity="0.3"/>
<ellipse cx="93" cy="50" rx="2" ry="1.4" fill="#fff"/>
<ellipse cx="107" cy="50" rx="2" ry="1.4" fill="#fff"/>
<circle cx="93" cy="50" r="1.2" fill="#3a4a6a"/>
<circle cx="107" cy="50" r="1.2" fill="#3a4a6a"/>
<circle cx="93" cy="50" r="0.6" fill="#0a0a0a"/>
<circle cx="107" cy="50" r="0.6" fill="#0a0a0a"/>
<circle cx="93.4" cy="49.6" r="0.3" fill="#fff"/>
<circle cx="107.4" cy="49.6" r="0.3" fill="#fff"/>
<line x1="91" y1="48" x2="91" y2="46" stroke="#1a0a05" stroke-width="0.4"/>
<line x1="93" y1="47.8" x2="93" y2="45.8" stroke="#1a0a05" stroke-width="0.4"/>
<line x1="95" y1="48" x2="95" y2="46" stroke="#1a0a05" stroke-width="0.4"/>
<line x1="105" y1="48" x2="105" y2="46" stroke="#1a0a05" stroke-width="0.4"/>
<line x1="107" y1="47.8" x2="107" y2="45.8" stroke="#1a0a05" stroke-width="0.4"/>
<line x1="109" y1="48" x2="109" y2="46" stroke="#1a0a05" stroke-width="0.4"/>
<path d="M 88 44 Q 93 41 97 43" fill="none" stroke="#3d2817" stroke-width="2" stroke-linecap="round"/>
<path d="M 103 43 Q 107 41 112 44" fill="none" stroke="#3d2817" stroke-width="2" stroke-linecap="round"/>
<path d="M 96 56 Q 100 62 104 56 L 104 60 Q 100 62 96 60 Z" fill="url(#skinShadow)" opacity="0.4"/>
<ellipse cx="100" cy="60" rx="0.8" ry="0.5" fill="#3a1a0a"/>
<ellipse cx="100" cy="60" rx="0.8" ry="0.5" fill="#3a1a0a" transform="translate(-3,0)"/>
<path d="M 95 67 Q 100 69 105 67" fill="none" stroke="#7a3520" stroke-width="1.4"/>
<path d="M 94 68 Q 100 71 106 68 Q 103 70 100 70 Q 97 70 94 68 Z" fill="#a85540" opacity="0.6"/>
<path d="M 80 48 C 76 28, 92 16, 100 16 C 108 16, 124 28, 120 48 L 116 44 C 112 32, 100 28, 88 32 C 84 34, 82 40, 80 48 Z" fill="url(#hair)"/>
<path d="M 84 28 Q 100 18 116 28" fill="none" stroke="#5a3d23" stroke-width="2.5" opacity="0.85"/>
<path d="M 86 32 Q 100 22 114 32" fill="none" stroke="#6a4830" stroke-width="1.2" opacity="0.6"/>
<path d="M 80 48 Q 78 56 80 62" fill="none" stroke="#3d2817" stroke-width="2"/>
<path d="M 120 48 Q 122 56 120 62" fill="none" stroke="#3d2817" stroke-width="2"/>
<ellipse cx="80" cy="58" rx="2" ry="3" fill="url(#skinShadow)"/>
<ellipse cx="120" cy="58" rx="2" ry="3" fill="url(#skinShadow)"/>
</g>
<path d="M 113 70 L 111 82 L 129 82 L 127 70 Z" fill="url(#skin)"/>
<path d="M 111 78 Q 120 82 129 78 L 129 82 L 111 82 Z" fill="url(#skinShadow)" opacity="0.6"/>


<path d="M 95 80
   C 91 95, 89 125, 93 145
   C 96 160, 98 172, 103 98
   L 137 98
   C 142 172, 144 160, 147 145
   C 151 125, 149 95, 145 80 Z" fill="url(#shirt)"/>
<path d="M 97 90 C 95 110 97 140 102 98" fill="none" stroke="url(#shirtHi)" stroke-width="2" opacity="0.5"/>
<path d="M 103 78 Q 120 74 137 78 L 137 82 Q 120 86 103 82 Z" fill="url(#shirtDark)"/>
<path d="M 112 94 Q 120 102 130 110" fill="none" stroke="url(#shirtDark)" stroke-width="0.8" opacity="0.5"/>
<line x1="120" y1="125" x2="120" y2="93" stroke="url(#shirtDark)" stroke-width="0.6" opacity="0.4"/>
<path d="M 97 88 Q 93 130 100 93" fill="none" stroke="url(#shirtDark)" stroke-width="1.5" opacity="0.6"/>
<path d="M 143 88 Q 147 130 140 93" fill="none" stroke="url(#shirtDark)" stroke-width="1.5" opacity="0.6"/>
<path d="M 103 98 Q 120 102 137 98" fill="none" stroke="url(#shirtDark)" stroke-width="2"/>

<!-- arm raised to side (right side, viewer's right) -->
<ellipse cx="146" cy="86" rx="12" ry="9" fill="url(#skin)"/>
<ellipse cx="152" cy="82" rx="6" ry="3" fill="url(#skinHi)" opacity="0.6"/>
<!-- upper arm horizontal to the right -->
<path d="M 154 80 Q 175 78 195 82 L 195 92 Q 175 90 152 92 Z" fill="url(#skin)"/>
<ellipse cx="175" cy="84" rx="14" ry="3" fill="url(#skinHi)" opacity="0.55"/>
<!-- elbow -->
<ellipse cx="195" cy="86" rx="6" ry="6" fill="url(#skinShadow)"/>
<!-- forearm continuing horizontally -->
<path d="M 195 82 Q 215 80 230 82 L 230 92 Q 215 92 195 92 Z" fill="url(#skin)"/>
<ellipse cx="212" cy="84" rx="10" ry="3" fill="url(#skinHi)" opacity="0.5"/>
<!-- hand -->
<path d="M 228 80 Q 238 80 240 86 Q 238 92 228 92 Z" fill="url(#skin)"/>
<!-- dumbbell in raised hand -->

<g opacity="1.0">
<rect x="229" y="74" width="6" height="24" rx="1" fill="url(#metal)"/>
<rect x="223" y="68" width="18" height="12" rx="2" fill="url(#weightPlate)"/>
<rect x="225" y="70" width="14" height="8" rx="1" fill="#1a1a1a"/>
<text x="232" y="77" font-size="6" fill="#9a9a9a" text-anchor="middle" font-weight="bold">5</text>
<rect x="223" y="92" width="18" height="12" rx="2" fill="url(#weightPlate)"/>
<rect x="225" y="94" width="14" height="8" rx="1" fill="#1a1a1a"/>
<text x="232" y="101" font-size="6" fill="#9a9a9a" text-anchor="middle" font-weight="bold">5</text>
</g>

<!-- left arm hanging -->
<ellipse cx="94" cy="86" rx="11" ry="8" fill="url(#skin)"/>
<path d="M 92 88 Q 88 120 90 160 L 102 160 Q 104 122 100 90 Z" fill="url(#skin)"/>
<ellipse cx="96" cy="125" rx="3" ry="14" fill="url(#skinHi)" opacity="0.5"/>
<ellipse cx="96" cy="162" rx="6" ry="3" fill="url(#skinShadow)"/>
<path d="M 90 162 Q 88 180 94 190 L 104 190 Q 106 175 104 162 Z" fill="url(#skin)"/>
<!-- ghost dumbbell at start (left hand down at side) -->

<g opacity="0.4">
<rect x="93" y="188" width="6" height="24" rx="1" fill="url(#metal)"/>
<rect x="87" y="182" width="18" height="12" rx="2" fill="url(#weightPlate)"/>
<rect x="89" y="184" width="14" height="8" rx="1" fill="#1a1a1a"/>
<text x="96" y="191" font-size="6" fill="#9a9a9a" text-anchor="middle" font-weight="bold">5</text>
<rect x="87" y="206" width="18" height="12" rx="2" fill="url(#weightPlate)"/>
<rect x="89" y="208" width="14" height="8" rx="1" fill="#1a1a1a"/>
<text x="96" y="215" font-size="6" fill="#9a9a9a" text-anchor="middle" font-weight="bold">5</text>
</g>

<!-- but wait, the abduction is the RIGHT arm. Let's also show a ghost dumbbell at start position for the right arm (down at side) -->
<g opacity="0.4">
<ellipse cx="146" cy="160" rx="6" ry="3" fill="url(#skinShadow)"/>

<g opacity="1.0">
<rect x="143" y="188" width="6" height="24" rx="1" fill="url(#metal)"/>
<rect x="137" y="182" width="18" height="12" rx="2" fill="url(#weightPlate)"/>
<rect x="139" y="184" width="14" height="8" rx="1" fill="#1a1a1a"/>
<text x="146" y="191" font-size="6" fill="#9a9a9a" text-anchor="middle" font-weight="bold">5</text>
<rect x="137" y="206" width="18" height="12" rx="2" fill="url(#weightPlate)"/>
<rect x="139" y="208" width="14" height="8" rx="1" fill="#1a1a1a"/>
<text x="146" y="215" font-size="6" fill="#9a9a9a" text-anchor="middle" font-weight="bold">5</text>
</g>
</g>
<text x="132" y="215" font-size="9" fill="#999" font-style="italic" font-family="Georgia">start</text>
<text x="218" y="75" font-size="9" fill="#b85440" font-style="italic" font-family="Georgia" font-weight="bold">end</text>


<path d="M 95 178 Q 91 194 97 215 L 143 215 Q 149 194 145 178 Z" fill="url(#shorts)"/>
<rect x="95" y="178" width="50" height="3" fill="#0a0a0a"/>
<path d="M 108 180 Q 110 184 112 182" fill="none" stroke="#5a5a5a" stroke-width="0.7"/>
<path d="M 132 180 Q 130 184 128 182" fill="none" stroke="#5a5a5a" stroke-width="0.7"/>
<circle cx="109" cy="184" r="0.6" fill="#3a3a3a"/>
<circle cx="131" cy="184" r="0.6" fill="#3a3a3a"/>
<rect x="101" y="178" width="2" height="3" fill="#0a0a0a"/>
<rect x="118" y="178" width="2" height="3" fill="#0a0a0a"/>
<rect x="137" y="178" width="2" height="3" fill="#0a0a0a"/>
<rect x="95" y="182" width="2" height="31" fill="#5a5a5a" opacity="0.4"/>
<rect x="143" y="182" width="2" height="31" fill="#5a5a5a" opacity="0.4"/>
<line x1="97" y1="215" x2="143" y2="215" stroke="#0a0a0a" stroke-width="1.5"/>

<!-- legs -->
<path d="M 105 218 Q 103 240 105 252 L 122 252 Q 122 240 120 218 Z" fill="url(#skin)"/>
<ellipse cx="111" cy="234" rx="3" ry="14" fill="url(#skinShadow)" opacity="0.3"/>
<ellipse cx="118" cy="234" rx="3" ry="14" fill="url(#skinHi)" opacity="0.4"/>
<path d="M 122 218 Q 120 240 122 252 L 138 252 Q 140 240 138 218 Z" fill="url(#skin)"/>
<ellipse cx="128" cy="234" rx="3" ry="14" fill="url(#skinShadow)" opacity="0.3"/>
<ellipse cx="135" cy="234" rx="3" ry="14" fill="url(#skinHi)" opacity="0.4"/>

<path d="M 99 250 L 121 250 L 127 246 Q 127 244 123 244 L 99 244 Q 97 244 97 248 Z" fill="url(#shoe)" stroke="#222" stroke-width="0.6"/>
<path d="M 97 248 L 127 246 L 127 250 L 97 250 Z" fill="url(#sole)"/>
<path d="M 119 250 L 127 246 Q 125 246 123 247 L 119 249 Z" fill="#e0e0e0" stroke="#222" stroke-width="0.4"/>
<line x1="108" y1="245" x2="112" y2="247" stroke="#fff" stroke-width="0.7"/>
<line x1="112" y1="245" x2="116" y2="247" stroke="#fff" stroke-width="0.7"/>
<line x1="116" y1="245" x2="120" y2="246" stroke="#fff" stroke-width="0.7"/>
<path d="M 106 247 Q 114 249 122 247" fill="none" stroke="#3460c8" stroke-width="1.4"/>
<line x1="108" y1="249" x2="108" y2="250" stroke="#3a3a3a" stroke-width="0.3"/>
<line x1="112" y1="249" x2="112" y2="250" stroke="#3a3a3a" stroke-width="0.3"/>
<line x1="116" y1="249" x2="116" y2="250" stroke="#3a3a3a" stroke-width="0.3"/>

<path d="M 121 250 L 143 250 L 149 246 Q 149 244 145 244 L 121 244 Q 119 244 119 248 Z" fill="url(#shoe)" stroke="#222" stroke-width="0.6"/>
<path d="M 119 248 L 149 246 L 149 250 L 119 250 Z" fill="url(#sole)"/>
<path d="M 141 250 L 149 246 Q 147 246 145 247 L 141 249 Z" fill="#e0e0e0" stroke="#222" stroke-width="0.4"/>
<line x1="130" y1="245" x2="134" y2="247" stroke="#fff" stroke-width="0.7"/>
<line x1="134" y1="245" x2="138" y2="247" stroke="#fff" stroke-width="0.7"/>
<line x1="138" y1="245" x2="142" y2="246" stroke="#fff" stroke-width="0.7"/>
<path d="M 128 247 Q 136 249 144 247" fill="none" stroke="#3460c8" stroke-width="1.4"/>
<line x1="130" y1="249" x2="130" y2="250" stroke="#3a3a3a" stroke-width="0.3"/>
<line x1="134" y1="249" x2="134" y2="250" stroke="#3a3a3a" stroke-width="0.3"/>
<line x1="138" y1="249" x2="138" y2="250" stroke="#3a3a3a" stroke-width="0.3"/>

<!-- trajectory: arm/weight from side-down to side-up -->

<path d="M 146 200 C 165 180 200 130 230 90" fill="none" stroke="#d4906a" stroke-width="2.5" stroke-dasharray="6,5" opacity="0.5" stroke-linecap="round"/>
<polygon points="224,82 232,82 228,90" fill="#d4906a" opacity="0.55"/>
</svg>
